<?xml version="1.0" encoding="UTF-8" standalone="no"?>
<svg viewBox="0 0 42 42" height="40mm" width="40mm">
  
  <g id="layer1">
    <g aria-label="LR" transform="matrix(1.0266375,0,0,1.026763,-112.36264,-91.551593)" id="text845" style="font-style:normal;font-weight:normal;font-size:10.5833px;line-height:0;font-family:sans-serif;letter-spacing:0px;word-spacing:0px;white-space:pre;inline-size:61.8358;fill:#000000;fill-opacity:1;stroke:none;stroke-width:0.257702">
      <path d="m 132.07536,127.73284 v -4.6736 c 0,-0.762 0,-1.6256 -1.27,-1.6256 -1.27,0 -1.37243,0.81928 -1.27,1.6256 v 4.1656 H 116.34854 V 95.161573 h 1.8669 c 0.5588,0 1.6256,0 1.6256,-1.015995 0,-1.1176 -1.0668,-1.1176 -1.6256,-1.1176 h -5.83777 c -0.6096,0 -1.5748,0 -1.5748,1.1176 0,1.015995 1.00561,0.797747 1.5748,1.015995 h 1.38007 v 32.063267 h -2.4384 c -0.6096,0 -1.5748,0 -1.5748,1.0668 0,1.0668 0.9652,1.0668 1.5748,1.0668 h 19.18122 c 1.3208,0 1.5748,-0.3556 1.5748,-1.6256 z" style="font-style:normal;font-variant:normal;font-weight:normal;font-stretch:normal;font-size:50.8px;line-height:2.05;font-family:'Latin Modern Mono Light';-inkscape-font-specification:'Latin Modern Mono Light, ';stroke-width:0.257702" id="path852" />
      <path d="m 141.19303,124.63641 c 0,-1.1684 -0.33443,-1.1684 -0.74083,-1.1684 -0.4064,0 -1.28602,0 -1.33682,1.0668 0,0.5588 0.26886,3.1993 -1.71908,3.02386 -1.7431,-0.15384 -0.90665,-9.38817 -0.92287,-13.80616 -0.0116,-3.14958 -0.13363,-3.6068 -0.59083,-4.7244 -1.34459,-3.02602 -2.38999,-2.96756 -3.71079,-3.98356 3.9624,-2.2352 4.8768,-5.232405 4.8768,-7.264405 0,-4.2672 -3.81012,-8.317372 -9.652,-8.280395 l -14.92824,0.09449 c -0.60959,0.0039 -1.5748,0 -1.5748,1.1176 0,1.015995 1.01603,1.021508 1.5748,1.015995 l 9.57731,-0.09449 v 31.534095 h -0.77047 c -0.6096,0 -1.5748,0 -1.5748,1.0668 0,1.0668 1.016,1.0668 1.5748,1.0668 h 4.13174 c 0.5588,0 1.5748,0 1.5748,-1.0668 0,-1.0668 -0.9652,-1.0668 -1.5748,-1.0668 h -0.77047 v -17.05609 h 2.50613 c 1.0668,0 3.32316,0 5.15196,1.57479 1.27,1.2192 1.74974,1.7208 1.84997,4.8768 0.1032,3.24956 -0.31726,12.80362 0.43958,14.58875 0.4105,1.69383 1.60088,2.41232 3.12488,2.41232 2.9464,0 3.48403,-3.1496 3.48403,-4.9276 z m -6.68442,-26.856265 c 0,2.794005 -2.4892,6.146805 -7.6708,6.146805 h -2.20133 V 91.633345 h 2.20133 c 5.2324,0 7.6708,3.4544 7.6708,6.1468 z" style="font-style:normal;font-variant:normal;font-weight:normal;font-stretch:normal;font-size:50.8px;line-height:2.05;font-family:'Latin Modern Mono Light';-inkscape-font-specification:'Latin Modern Mono Light, ';stroke-width:0.257702" id="path854" />
    </g>
    <path style="fill:none;stroke:#000000;stroke-width:0.508;stroke-linecap:butt;stroke-linejoin:miter;stroke-miterlimit:4;stroke-dasharray:none;stroke-opacity:1" d="M 16.736333,0.63686303 41.431328,0.52245597 41.256192,40.451072 v 0" id="path977" />
    <path style="fill:none;stroke:#000000;stroke-width:0.2032;stroke-linecap:butt;stroke-linejoin:miter;stroke-miterlimit:4;stroke-dasharray:none;stroke-opacity:1" d="m 28.627827,16.549445 h 12.89634" id="path996" />
    <path id="path996-4" d="m 32.194877,13.976907 h 9.32929" style="fill:none;stroke:#000000;stroke-width:0.2032;stroke-linecap:butt;stroke-linejoin:miter;stroke-miterlimit:4;stroke-dasharray:none;stroke-opacity:1" />
    <path style="fill:none;stroke:#000000;stroke-width:0.2032;stroke-linecap:butt;stroke-linejoin:miter;stroke-miterlimit:4;stroke-dasharray:none;stroke-opacity:1" d="m 32.194877,19.121982 h 9.32929" id="path996-4-7" />
    <path style="fill:none;stroke:#000000;stroke-width:0.2032;stroke-linecap:butt;stroke-linejoin:miter;stroke-miterlimit:4;stroke-dasharray:none;stroke-opacity:1" d="m 34.389992,11.404369 h 7.134175" id="path996-4-74" />
    <path id="path996-4-74-3" d="m 34.389992,21.694519 h 7.134175" style="fill:none;stroke:#000000;stroke-width:0.2032;stroke-linecap:butt;stroke-linejoin:miter;stroke-miterlimit:4;stroke-dasharray:none;stroke-opacity:1" />
    <path style="fill:none;stroke:#000000;stroke-width:0.2032;stroke-linecap:butt;stroke-linejoin:miter;stroke-miterlimit:4;stroke-dasharray:none;stroke-opacity:1" d="m 37.545462,24.26705 h 3.978705" id="path996-4-74-37-3" />
    <path id="path996-4-74-37-3-1" d="m 37.545462,8.8318321 h 3.978705" style="fill:none;stroke:#000000;stroke-width:0.2032;stroke-linecap:butt;stroke-linejoin:miter;stroke-miterlimit:4;stroke-dasharray:none;stroke-opacity:1" />
    <path style="fill:none;stroke:#000000;stroke-width:0.2032;stroke-linecap:butt;stroke-linejoin:miter;stroke-miterlimit:4;stroke-dasharray:none;stroke-opacity:1" d="m 40.014967,6.2592947 h 1.5092" id="path996-4-74-37-3-1-9" />
    <path id="path996-4-74-37-3-1-9-8" d="m 40.014967,26.839594 h 1.5092" style="fill:none;stroke:#000000;stroke-width:0.2032;stroke-linecap:butt;stroke-linejoin:miter;stroke-miterlimit:4;stroke-dasharray:none;stroke-opacity:1" />
  </g>
</svg>
